<?xml version="1.0" encoding="UTF-8" standalone="no"?>
<!DOCTYPE svg PUBLIC "-//W3C//DTD SVG 1.1//EN"
 "http://www.w3.org/Graphics/SVG/1.1/DTD/svg11.dtd">
<!-- Generated by graphviz version 2.49.0 (20210828.1703)
 -->
<!-- Title: snakemake_dag Pages: 1 -->
<svg width="579pt" height="1196pt"
 viewBox="0.00 0.00 578.50 1196.00" xmlns="http://www.w3.org/2000/svg" xmlns:xlink="http://www.w3.org/1999/xlink">
<g id="graph0" class="graph" transform="scale(1 1) rotate(0) translate(4 1192)">
<title>snakemake_dag</title>
<polygon fill="white" stroke="transparent" points="-4,4 -4,-1192 574.5,-1192 574.5,4 -4,4"/>
<!-- 0 -->
<g id="node1" class="node">
<title>0</title>
<path fill="none" stroke="#56d88a" stroke-width="2" d="M251,-36C251,-36 221,-36 221,-36 215,-36 209,-30 209,-24 209,-24 209,-12 209,-12 209,-6 215,0 221,0 221,0 251,0 251,0 257,0 263,-6 263,-12 263,-12 263,-24 263,-24 263,-30 257,-36 251,-36"/>
<text text-anchor="middle" x="236" y="-15.5" font-family="sans" font-size="10.00">all</text>
</g>
<!-- 1 -->
<g id="node2" class="node">
<title>1</title>
<path fill="none" stroke="#5692d8" stroke-width="2" d="M201,-108C201,-108 141,-108 141,-108 135,-108 129,-102 129,-96 129,-96 129,-84 129,-84 129,-78 135,-72 141,-72 141,-72 201,-72 201,-72 207,-72 213,-78 213,-84 213,-84 213,-96 213,-96 213,-102 207,-108 201,-108"/>
<text text-anchor="middle" x="171" y="-87.5" font-family="sans" font-size="10.00">ApplyVqsrSnp</text>
</g>
<!-- 1&#45;&gt;0 -->
<g id="edge2" class="edge">
<title>1&#45;&gt;0</title>
<path fill="none" stroke="grey" stroke-width="2" d="M187.07,-71.7C194.94,-63.22 204.56,-52.86 213.17,-43.58"/>
<polygon fill="grey" stroke="grey" stroke-width="2" points="215.88,-45.81 220.12,-36.1 210.75,-41.05 215.88,-45.81"/>
</g>
<!-- 2 -->
<g id="node3" class="node">
<title>2</title>
<path fill="none" stroke="#bed856" stroke-width="2" d="M211,-180C211,-180 105,-180 105,-180 99,-180 93,-174 93,-168 93,-168 93,-156 93,-156 93,-150 99,-144 105,-144 105,-144 211,-144 211,-144 217,-144 223,-150 223,-156 223,-156 223,-168 223,-168 223,-174 217,-180 211,-180"/>
<text text-anchor="middle" x="158" y="-159.5" font-family="sans" font-size="10.00">VariantRecalibratorSNP</text>
</g>
<!-- 2&#45;&gt;1 -->
<g id="edge6" class="edge">
<title>2&#45;&gt;1</title>
<path fill="none" stroke="grey" stroke-width="2" d="M161.21,-143.7C162.65,-135.98 164.37,-126.71 165.96,-118.11"/>
<polygon fill="grey" stroke="grey" stroke-width="2" points="169.44,-118.58 167.82,-108.1 162.56,-117.3 169.44,-118.58"/>
</g>
<!-- 3 -->
<g id="node4" class="node">
<title>3</title>
<path fill="none" stroke="#56d8d0" stroke-width="2" d="M341.5,-324C341.5,-324 236.5,-324 236.5,-324 230.5,-324 224.5,-318 224.5,-312 224.5,-312 224.5,-300 224.5,-300 224.5,-294 230.5,-288 236.5,-288 236.5,-288 341.5,-288 341.5,-288 347.5,-288 353.5,-294 353.5,-300 353.5,-300 353.5,-312 353.5,-312 353.5,-318 347.5,-324 341.5,-324"/>
<text text-anchor="middle" x="289" y="-303.5" font-family="sans" font-size="10.00">GatherGenotypeGVCFs</text>
</g>
<!-- 3&#45;&gt;1 -->
<g id="edge7" class="edge">
<title>3&#45;&gt;1</title>
<path fill="none" stroke="grey" stroke-width="2" d="M229.97,-287.87C180.5,-269.94 113.38,-236.37 84,-180 76.61,-165.81 76.16,-157.95 84,-144 91.96,-129.83 105.41,-119.01 119.39,-110.95"/>
<polygon fill="grey" stroke="grey" stroke-width="2" points="121.41,-113.84 128.6,-106.05 118.12,-107.66 121.41,-113.84"/>
</g>
<!-- 3&#45;&gt;2 -->
<g id="edge9" class="edge">
<title>3&#45;&gt;2</title>
<path fill="none" stroke="grey" stroke-width="2" d="M262.87,-287.83C249.26,-278.2 232.83,-265.44 220,-252 201.56,-232.68 184.53,-207.46 173,-188.8"/>
<polygon fill="grey" stroke="grey" stroke-width="2" points="175.98,-186.96 167.8,-180.22 169.99,-190.59 175.98,-186.96"/>
</g>
<!-- 15 -->
<g id="node16" class="node">
<title>15</title>
<path fill="none" stroke="#88d856" stroke-width="2" d="M337.5,-252C337.5,-252 240.5,-252 240.5,-252 234.5,-252 228.5,-246 228.5,-240 228.5,-240 228.5,-228 228.5,-228 228.5,-222 234.5,-216 240.5,-216 240.5,-216 337.5,-216 337.5,-216 343.5,-216 349.5,-222 349.5,-228 349.5,-228 349.5,-240 349.5,-240 349.5,-246 343.5,-252 337.5,-252"/>
<text text-anchor="middle" x="289" y="-231.5" font-family="sans" font-size="10.00">IndexGatheredGVCFs</text>
</g>
<!-- 3&#45;&gt;15 -->
<g id="edge20" class="edge">
<title>3&#45;&gt;15</title>
<path fill="none" stroke="grey" stroke-width="2" d="M289,-287.7C289,-279.98 289,-270.71 289,-262.11"/>
<polygon fill="grey" stroke="grey" stroke-width="2" points="292.5,-262.1 289,-252.1 285.5,-262.1 292.5,-262.1"/>
</g>
<!-- 16 -->
<g id="node17" class="node">
<title>16</title>
<path fill="none" stroke="#d8b456" stroke-width="2" d="M363,-108C363,-108 297,-108 297,-108 291,-108 285,-102 285,-96 285,-96 285,-84 285,-84 285,-78 291,-72 297,-72 297,-72 363,-72 363,-72 369,-72 375,-78 375,-84 375,-84 375,-96 375,-96 375,-102 369,-108 363,-108"/>
<text text-anchor="middle" x="330" y="-87.5" font-family="sans" font-size="10.00">ApplyVqsrIndel</text>
</g>
<!-- 3&#45;&gt;16 -->
<g id="edge23" class="edge">
<title>3&#45;&gt;16</title>
<path fill="none" stroke="grey" stroke-width="2" d="M335.56,-287.96C379.05,-269.13 440.93,-234.1 466,-180 472.73,-165.48 475.03,-157.21 466,-144 447.9,-117.52 414.45,-104.27 385.26,-97.64"/>
<polygon fill="grey" stroke="grey" stroke-width="2" points="385.64,-94.14 375.14,-95.56 384.23,-101 385.64,-94.14"/>
</g>
<!-- 17 -->
<g id="node18" class="node">
<title>17</title>
<path fill="none" stroke="#d8a456" stroke-width="2" d="M445,-180C445,-180 329,-180 329,-180 323,-180 317,-174 317,-168 317,-168 317,-156 317,-156 317,-150 323,-144 329,-144 329,-144 445,-144 445,-144 451,-144 457,-150 457,-156 457,-156 457,-168 457,-168 457,-174 451,-180 445,-180"/>
<text text-anchor="middle" x="387" y="-159.5" font-family="sans" font-size="10.00">VariantRecalibratorINDEL</text>
</g>
<!-- 3&#45;&gt;17 -->
<g id="edge25" class="edge">
<title>3&#45;&gt;17</title>
<path fill="none" stroke="grey" stroke-width="2" d="M319.42,-287.99C333.22,-278.9 348.73,-266.58 359,-252 372.01,-233.54 379.15,-208.79 382.96,-190.08"/>
<polygon fill="grey" stroke="grey" stroke-width="2" points="386.43,-190.58 384.79,-180.12 379.54,-189.32 386.43,-190.58"/>
</g>
<!-- 19 -->
<g id="node20" class="node">
<title>19</title>
<path fill="none" stroke="#56b9d8" stroke-width="2" d="M558.5,-180C558.5,-180 525.5,-180 525.5,-180 519.5,-180 513.5,-174 513.5,-168 513.5,-168 513.5,-156 513.5,-156 513.5,-150 519.5,-144 525.5,-144 525.5,-144 558.5,-144 558.5,-144 564.5,-144 570.5,-150 570.5,-156 570.5,-156 570.5,-168 570.5,-168 570.5,-174 564.5,-180 558.5,-180"/>
<text text-anchor="middle" x="542" y="-159.5" font-family="sans" font-size="10.00">VcfStats</text>
</g>
<!-- 3&#45;&gt;19 -->
<g id="edge28" class="edge">
<title>3&#45;&gt;19</title>
<path fill="none" stroke="grey" stroke-width="2" d="M353.66,-302.75C398.8,-298.09 458.05,-285.38 499,-252 518.25,-236.3 529.48,-209.9 535.61,-189.92"/>
<polygon fill="grey" stroke="grey" stroke-width="2" points="539.02,-190.72 538.36,-180.14 532.28,-188.82 539.02,-190.72"/>
</g>
<!-- 4 -->
<g id="node5" class="node">
<title>4</title>
<path fill="none" stroke="#61d856" stroke-width="2" d="M332.5,-972C332.5,-972 201.5,-972 201.5,-972 195.5,-972 189.5,-966 189.5,-960 189.5,-960 189.5,-948 189.5,-948 189.5,-942 195.5,-936 201.5,-936 201.5,-936 332.5,-936 332.5,-936 338.5,-936 344.5,-942 344.5,-948 344.5,-948 344.5,-960 344.5,-960 344.5,-966 338.5,-972 332.5,-972"/>
<text text-anchor="middle" x="267" y="-951.5" font-family="sans" font-size="10.00">BaseRecalibratorCheckpoint</text>
</g>
<!-- 22 -->
<g id="node23" class="node">
<title>22</title>
<path fill="none" stroke="#d85656" stroke-width="2" d="M220,-900C220,-900 144,-900 144,-900 138,-900 132,-894 132,-888 132,-888 132,-876 132,-876 132,-870 138,-864 144,-864 144,-864 220,-864 220,-864 226,-864 232,-870 232,-876 232,-876 232,-888 232,-888 232,-894 226,-900 220,-900"/>
<text text-anchor="middle" x="182" y="-879.5" font-family="sans" font-size="10.00">BaseRecalibrator</text>
</g>
<!-- 4&#45;&gt;22 -->
<g id="edge31" class="edge">
<title>4&#45;&gt;22</title>
<path fill="none" stroke="grey" stroke-width="2" d="M245.99,-935.7C235.28,-926.88 222.11,-916.03 210.5,-906.47"/>
<polygon fill="grey" stroke="grey" stroke-width="2" points="212.71,-903.76 202.77,-900.1 208.26,-909.16 212.71,-903.76"/>
</g>
<!-- 23 -->
<g id="node24" class="node">
<title>23</title>
<path fill="none" stroke="#d6d856" stroke-width="2" d="M203.5,-756C203.5,-756 156.5,-756 156.5,-756 150.5,-756 144.5,-750 144.5,-744 144.5,-744 144.5,-732 144.5,-732 144.5,-726 150.5,-720 156.5,-720 156.5,-720 203.5,-720 203.5,-720 209.5,-720 215.5,-726 215.5,-732 215.5,-732 215.5,-744 215.5,-744 215.5,-750 209.5,-756 203.5,-756"/>
<text text-anchor="middle" x="180" y="-735.5" font-family="sans" font-size="10.00">ApplyBQSR</text>
</g>
<!-- 4&#45;&gt;23 -->
<g id="edge33" class="edge">
<title>4&#45;&gt;23</title>
<path fill="none" stroke="grey" stroke-width="2" d="M269.1,-935.7C272,-904.71 274.25,-838.59 248,-792 241.33,-780.15 230.82,-770.04 220.05,-761.92"/>
<polygon fill="grey" stroke="grey" stroke-width="2" points="222.01,-759.02 211.82,-756.11 217.97,-764.74 222.01,-759.02"/>
</g>
<!-- 24 -->
<g id="node25" class="node">
<title>24</title>
<path fill="none" stroke="#d87d56" stroke-width="2" d="M312,-396C312,-396 240,-396 240,-396 234,-396 228,-390 228,-384 228,-384 228,-372 228,-372 228,-366 234,-360 240,-360 240,-360 312,-360 312,-360 318,-360 324,-366 324,-372 324,-372 324,-384 324,-384 324,-390 318,-396 312,-396"/>
<text text-anchor="middle" x="276" y="-375.5" font-family="sans" font-size="10.00">GenotypeGVCFs</text>
</g>
<!-- 4&#45;&gt;24 -->
<g id="edge36" class="edge">
<title>4&#45;&gt;24</title>
<path fill="none" stroke="grey" stroke-width="2" d="M275.09,-935.95C286.78,-909.72 307,-857.61 307,-811 307,-811 307,-811 307,-521 307,-480.1 294.57,-434.06 285.45,-405.79"/>
<polygon fill="grey" stroke="grey" stroke-width="2" points="288.75,-404.61 282.27,-396.22 282.11,-406.82 288.75,-404.61"/>
</g>
<!-- 5 -->
<g id="node6" class="node">
<title>5</title>
<path fill="none" stroke="#70d856" stroke-width="2" d="M325,-1044C325,-1044 209,-1044 209,-1044 203,-1044 197,-1038 197,-1032 197,-1032 197,-1020 197,-1020 197,-1014 203,-1008 209,-1008 209,-1008 325,-1008 325,-1008 331,-1008 337,-1014 337,-1020 337,-1020 337,-1032 337,-1032 337,-1038 331,-1044 325,-1044"/>
<text text-anchor="middle" x="267" y="-1023.5" font-family="sans" font-size="10.00">MakeSequenceGroupings</text>
</g>
<!-- 5&#45;&gt;4 -->
<g id="edge11" class="edge">
<title>5&#45;&gt;4</title>
<path fill="none" stroke="grey" stroke-width="2" d="M267,-1007.7C267,-999.98 267,-990.71 267,-982.11"/>
<polygon fill="grey" stroke="grey" stroke-width="2" points="270.5,-982.1 267,-972.1 263.5,-982.1 270.5,-982.1"/>
</g>
<!-- 6 -->
<g id="node7" class="node">
<title>6</title>
<path fill="none" stroke="#56d89a" stroke-width="2" d="M210,-540C210,-540 140,-540 140,-540 134,-540 128,-534 128,-528 128,-528 128,-516 128,-516 128,-510 134,-504 140,-504 140,-504 210,-504 210,-504 216,-504 222,-510 222,-516 222,-516 222,-528 222,-528 222,-534 216,-540 210,-540"/>
<text text-anchor="middle" x="175" y="-519.5" font-family="sans" font-size="10.00">GatherHTCVCFs</text>
</g>
<!-- 14 -->
<g id="node15" class="node">
<title>14</title>
<path fill="none" stroke="#567bd8" stroke-width="2" d="M228.5,-468C228.5,-468 119.5,-468 119.5,-468 113.5,-468 107.5,-462 107.5,-456 107.5,-456 107.5,-444 107.5,-444 107.5,-438 113.5,-432 119.5,-432 119.5,-432 228.5,-432 228.5,-432 234.5,-432 240.5,-438 240.5,-444 240.5,-444 240.5,-456 240.5,-456 240.5,-462 234.5,-468 228.5,-468"/>
<text text-anchor="middle" x="174" y="-447.5" font-family="sans" font-size="10.00">IndexGatheredHTCVCFs</text>
</g>
<!-- 6&#45;&gt;14 -->
<g id="edge19" class="edge">
<title>6&#45;&gt;14</title>
<path fill="none" stroke="grey" stroke-width="2" d="M174.75,-503.7C174.64,-495.98 174.51,-486.71 174.39,-478.11"/>
<polygon fill="grey" stroke="grey" stroke-width="2" points="177.89,-478.05 174.24,-468.1 170.89,-478.15 177.89,-478.05"/>
</g>
<!-- 6&#45;&gt;24 -->
<g id="edge38" class="edge">
<title>6&#45;&gt;24</title>
<path fill="none" stroke="grey" stroke-width="2" d="M208.88,-503.83C223.41,-494.92 239.44,-482.79 250,-468 263.04,-449.73 269.59,-424.97 272.85,-406.2"/>
<polygon fill="grey" stroke="grey" stroke-width="2" points="276.32,-406.62 274.38,-396.2 269.4,-405.56 276.32,-406.62"/>
</g>
<!-- 7 -->
<g id="node8" class="node">
<title>7</title>
<path fill="none" stroke="#56d863" stroke-width="2" d="M210.5,-612C210.5,-612 139.5,-612 139.5,-612 133.5,-612 127.5,-606 127.5,-600 127.5,-600 127.5,-588 127.5,-588 127.5,-582 133.5,-576 139.5,-576 139.5,-576 210.5,-576 210.5,-576 216.5,-576 222.5,-582 222.5,-588 222.5,-588 222.5,-600 222.5,-600 222.5,-606 216.5,-612 210.5,-612"/>
<text text-anchor="middle" x="175" y="-591.5" font-family="sans" font-size="10.00">HaplotypeCaller</text>
</g>
<!-- 7&#45;&gt;6 -->
<g id="edge12" class="edge">
<title>7&#45;&gt;6</title>
<path fill="none" stroke="grey" stroke-width="2" d="M175,-575.7C175,-567.98 175,-558.71 175,-550.11"/>
<polygon fill="grey" stroke="grey" stroke-width="2" points="178.5,-550.1 175,-540.1 171.5,-550.1 178.5,-550.1"/>
</g>
<!-- 8 -->
<g id="node9" class="node">
<title>8</title>
<path fill="none" stroke="#d8cb56" stroke-width="2" d="M228.5,-684C228.5,-684 121.5,-684 121.5,-684 115.5,-684 109.5,-678 109.5,-672 109.5,-672 109.5,-660 109.5,-660 109.5,-654 115.5,-648 121.5,-648 121.5,-648 228.5,-648 228.5,-648 234.5,-648 240.5,-654 240.5,-660 240.5,-660 240.5,-672 240.5,-672 240.5,-678 234.5,-684 228.5,-684"/>
<text text-anchor="middle" x="175" y="-663.5" font-family="sans" font-size="10.00">GatherApplyBQSRbams</text>
</g>
<!-- 8&#45;&gt;7 -->
<g id="edge13" class="edge">
<title>8&#45;&gt;7</title>
<path fill="none" stroke="grey" stroke-width="2" d="M175,-647.7C175,-639.98 175,-630.71 175,-622.11"/>
<polygon fill="grey" stroke="grey" stroke-width="2" points="178.5,-622.1 175,-612.1 171.5,-622.1 178.5,-622.1"/>
</g>
<!-- 21 -->
<g id="node22" class="node">
<title>21</title>
<path fill="none" stroke="#d86656" stroke-width="2" d="M66,-612C66,-612 26,-612 26,-612 20,-612 14,-606 14,-600 14,-600 14,-588 14,-588 14,-582 20,-576 26,-576 26,-576 66,-576 66,-576 72,-576 78,-582 78,-588 78,-588 78,-600 78,-600 78,-606 72,-612 66,-612"/>
<text text-anchor="middle" x="46" y="-591.5" font-family="sans" font-size="10.00">BamStats</text>
</g>
<!-- 8&#45;&gt;21 -->
<g id="edge30" class="edge">
<title>8&#45;&gt;21</title>
<path fill="none" stroke="grey" stroke-width="2" d="M143.44,-647.88C126.34,-638.6 105.02,-627.03 86.68,-617.08"/>
<polygon fill="grey" stroke="grey" stroke-width="2" points="88.14,-613.88 77.68,-612.19 84.8,-620.04 88.14,-613.88"/>
</g>
<!-- 9 -->
<g id="node10" class="node">
<title>9</title>
<path fill="none" stroke="#97d856" stroke-width="2" d="M227,-828C227,-828 137,-828 137,-828 131,-828 125,-822 125,-816 125,-816 125,-804 125,-804 125,-798 131,-792 137,-792 137,-792 227,-792 227,-792 233,-792 239,-798 239,-804 239,-804 239,-816 239,-816 239,-822 233,-828 227,-828"/>
<text text-anchor="middle" x="182" y="-807.5" font-family="sans" font-size="10.00">GatherBQSRReports</text>
</g>
<!-- 9&#45;&gt;23 -->
<g id="edge34" class="edge">
<title>9&#45;&gt;23</title>
<path fill="none" stroke="grey" stroke-width="2" d="M181.51,-791.7C181.29,-783.98 181.02,-774.71 180.77,-766.11"/>
<polygon fill="grey" stroke="grey" stroke-width="2" points="184.27,-766 180.49,-756.1 177.28,-766.2 184.27,-766"/>
</g>
<!-- 10 -->
<g id="node11" class="node">
<title>10</title>
<path fill="none" stroke="#56d8c1" stroke-width="2" d="M104,-1044C104,-1044 12,-1044 12,-1044 6,-1044 0,-1038 0,-1032 0,-1032 0,-1020 0,-1020 0,-1014 6,-1008 12,-1008 12,-1008 104,-1008 104,-1008 110,-1008 116,-1014 116,-1020 116,-1020 116,-1032 116,-1032 116,-1038 110,-1044 104,-1044"/>
<text text-anchor="middle" x="58" y="-1023.5" font-family="sans" font-size="10.00">MarkDupCheckpoint</text>
</g>
<!-- 25 -->
<g id="node26" class="node">
<title>25</title>
<path fill="none" stroke="#566bd8" stroke-width="2" d="M137.5,-972C137.5,-972 100.5,-972 100.5,-972 94.5,-972 88.5,-966 88.5,-960 88.5,-960 88.5,-948 88.5,-948 88.5,-942 94.5,-936 100.5,-936 100.5,-936 137.5,-936 137.5,-936 143.5,-936 149.5,-942 149.5,-948 149.5,-948 149.5,-960 149.5,-960 149.5,-966 143.5,-972 137.5,-972"/>
<text text-anchor="middle" x="119" y="-951.5" font-family="sans" font-size="10.00">MarkDup</text>
</g>
<!-- 10&#45;&gt;25 -->
<g id="edge39" class="edge">
<title>10&#45;&gt;25</title>
<path fill="none" stroke="grey" stroke-width="2" d="M73.08,-1007.7C80.39,-999.3 89.31,-989.07 97.34,-979.86"/>
<polygon fill="grey" stroke="grey" stroke-width="2" points="100.16,-981.94 104.09,-972.1 94.89,-977.34 100.16,-981.94"/>
</g>
<!-- 11 -->
<g id="node12" class="node">
<title>11</title>
<path fill="none" stroke="#d88d56" stroke-width="2" d="M149,-1116C149,-1116 53,-1116 53,-1116 47,-1116 41,-1110 41,-1104 41,-1104 41,-1092 41,-1092 41,-1086 47,-1080 53,-1080 53,-1080 149,-1080 149,-1080 155,-1080 161,-1086 161,-1092 161,-1092 161,-1104 161,-1104 161,-1110 155,-1116 149,-1116"/>
<text text-anchor="middle" x="101" y="-1095.5" font-family="sans" font-size="10.00">MergeBamAlignment</text>
</g>
<!-- 11&#45;&gt;10 -->
<g id="edge16" class="edge">
<title>11&#45;&gt;10</title>
<path fill="none" stroke="grey" stroke-width="2" d="M90.37,-1079.7C85.37,-1071.56 79.31,-1061.69 73.79,-1052.7"/>
<polygon fill="grey" stroke="grey" stroke-width="2" points="76.72,-1050.79 68.51,-1044.1 70.76,-1054.46 76.72,-1050.79"/>
</g>
<!-- 11&#45;&gt;25 -->
<g id="edge40" class="edge">
<title>11&#45;&gt;25</title>
<path fill="none" stroke="grey" stroke-width="2" d="M110.95,-1079.98C116.27,-1069.89 122.27,-1056.64 125,-1044 129.4,-1023.6 127.51,-1000.01 124.72,-982.24"/>
<polygon fill="grey" stroke="grey" stroke-width="2" points="128.15,-981.51 122.97,-972.27 121.25,-982.72 128.15,-981.51"/>
</g>
<!-- 12 -->
<g id="node13" class="node">
<title>12</title>
<path fill="none" stroke="#56c9d8" stroke-width="2" d="M77,-1188C77,-1188 39,-1188 39,-1188 33,-1188 27,-1182 27,-1176 27,-1176 27,-1164 27,-1164 27,-1158 33,-1152 39,-1152 39,-1152 77,-1152 77,-1152 83,-1152 89,-1158 89,-1164 89,-1164 89,-1176 89,-1176 89,-1182 83,-1188 77,-1188"/>
<text text-anchor="middle" x="58" y="-1167.5" font-family="sans" font-size="10.00">BwaMem</text>
</g>
<!-- 12&#45;&gt;11 -->
<g id="edge17" class="edge">
<title>12&#45;&gt;11</title>
<path fill="none" stroke="grey" stroke-width="2" d="M68.63,-1151.7C73.63,-1143.56 79.69,-1133.69 85.21,-1124.7"/>
<polygon fill="grey" stroke="grey" stroke-width="2" points="88.24,-1126.46 90.49,-1116.1 82.28,-1122.79 88.24,-1126.46"/>
</g>
<!-- 13 -->
<g id="node14" class="node">
<title>13</title>
<path fill="none" stroke="#56a2d8" stroke-width="2" d="M169,-1188C169,-1188 119,-1188 119,-1188 113,-1188 107,-1182 107,-1176 107,-1176 107,-1164 107,-1164 107,-1158 113,-1152 119,-1152 119,-1152 169,-1152 169,-1152 175,-1152 181,-1158 181,-1164 181,-1164 181,-1176 181,-1176 181,-1182 175,-1188 169,-1188"/>
<text text-anchor="middle" x="144" y="-1167.5" font-family="sans" font-size="10.00">FastqtoSam</text>
</g>
<!-- 13&#45;&gt;11 -->
<g id="edge18" class="edge">
<title>13&#45;&gt;11</title>
<path fill="none" stroke="grey" stroke-width="2" d="M133.37,-1151.7C128.37,-1143.56 122.31,-1133.69 116.79,-1124.7"/>
<polygon fill="grey" stroke="grey" stroke-width="2" points="119.72,-1122.79 111.51,-1116.1 113.76,-1126.46 119.72,-1122.79"/>
</g>
<!-- 14&#45;&gt;24 -->
<g id="edge37" class="edge">
<title>14&#45;&gt;24</title>
<path fill="none" stroke="grey" stroke-width="2" d="M198.95,-431.88C212.04,-422.89 228.26,-411.76 242.44,-402.03"/>
<polygon fill="grey" stroke="grey" stroke-width="2" points="244.69,-404.73 250.95,-396.19 240.73,-398.96 244.69,-404.73"/>
</g>
<!-- 15&#45;&gt;1 -->
<g id="edge5" class="edge">
<title>15&#45;&gt;1</title>
<path fill="none" stroke="grey" stroke-width="2" d="M280.02,-215.94C269.75,-197.26 251.79,-166.91 232,-144 222.95,-133.53 211.82,-123.26 201.56,-114.59"/>
<polygon fill="grey" stroke="grey" stroke-width="2" points="203.51,-111.66 193.57,-108.01 199.06,-117.07 203.51,-111.66"/>
</g>
<!-- 15&#45;&gt;2 -->
<g id="edge8" class="edge">
<title>15&#45;&gt;2</title>
<path fill="none" stroke="grey" stroke-width="2" d="M256.95,-215.88C239.51,-206.55 217.73,-194.92 199.06,-184.94"/>
<polygon fill="grey" stroke="grey" stroke-width="2" points="200.64,-181.82 190.17,-180.19 197.34,-187.99 200.64,-181.82"/>
</g>
<!-- 15&#45;&gt;16 -->
<g id="edge22" class="edge">
<title>15&#45;&gt;16</title>
<path fill="none" stroke="grey" stroke-width="2" d="M291.73,-215.7C294.8,-197.59 300.39,-168.44 308,-144 310.73,-135.25 314.33,-125.94 317.84,-117.61"/>
<polygon fill="grey" stroke="grey" stroke-width="2" points="321.08,-118.94 321.84,-108.37 314.65,-116.15 321.08,-118.94"/>
</g>
<!-- 15&#45;&gt;17 -->
<g id="edge24" class="edge">
<title>15&#45;&gt;17</title>
<path fill="none" stroke="grey" stroke-width="2" d="M312.97,-215.88C325.55,-206.89 341.13,-195.76 354.75,-186.03"/>
<polygon fill="grey" stroke="grey" stroke-width="2" points="356.83,-188.85 362.93,-180.19 352.76,-183.15 356.83,-188.85"/>
</g>
<!-- 15&#45;&gt;19 -->
<g id="edge27" class="edge">
<title>15&#45;&gt;19</title>
<path fill="none" stroke="grey" stroke-width="2" d="M349.6,-216.23C397.44,-203 462.73,-184.93 503.62,-173.62"/>
<polygon fill="grey" stroke="grey" stroke-width="2" points="504.76,-176.94 513.46,-170.9 502.89,-170.19 504.76,-176.94"/>
</g>
<!-- 16&#45;&gt;0 -->
<g id="edge1" class="edge">
<title>16&#45;&gt;0</title>
<path fill="none" stroke="grey" stroke-width="2" d="M306.76,-71.7C294.81,-62.8 280.08,-51.82 267.15,-42.2"/>
<polygon fill="grey" stroke="grey" stroke-width="2" points="269.08,-39.27 258.97,-36.1 264.9,-44.88 269.08,-39.27"/>
</g>
<!-- 17&#45;&gt;16 -->
<g id="edge21" class="edge">
<title>17&#45;&gt;16</title>
<path fill="none" stroke="grey" stroke-width="2" d="M372.91,-143.7C366.08,-135.3 357.74,-125.07 350.24,-115.86"/>
<polygon fill="grey" stroke="grey" stroke-width="2" points="352.96,-113.65 343.93,-108.1 347.53,-118.07 352.96,-113.65"/>
</g>
<!-- 18 -->
<g id="node19" class="node">
<title>18</title>
<path fill="none" stroke="#afd856" stroke-width="2" d="M516,-108C516,-108 486,-108 486,-108 480,-108 474,-102 474,-96 474,-96 474,-84 474,-84 474,-78 480,-72 486,-72 486,-72 516,-72 516,-72 522,-72 528,-78 528,-84 528,-84 528,-96 528,-96 528,-102 522,-108 516,-108"/>
<text text-anchor="middle" x="501" y="-87.5" font-family="sans" font-size="10.00">VcfPlot</text>
</g>
<!-- 18&#45;&gt;0 -->
<g id="edge4" class="edge">
<title>18&#45;&gt;0</title>
<path fill="none" stroke="grey" stroke-width="2" d="M473.64,-81.77C425.81,-69.14 326.96,-43.03 273.05,-28.79"/>
<polygon fill="grey" stroke="grey" stroke-width="2" points="273.77,-25.36 263.21,-26.19 271.99,-32.13 273.77,-25.36"/>
</g>
<!-- 19&#45;&gt;18 -->
<g id="edge26" class="edge">
<title>19&#45;&gt;18</title>
<path fill="none" stroke="grey" stroke-width="2" d="M531.87,-143.7C527.15,-135.64 521.44,-125.89 516.22,-116.98"/>
<polygon fill="grey" stroke="grey" stroke-width="2" points="519.09,-114.96 511.02,-108.1 513.05,-118.5 519.09,-114.96"/>
</g>
<!-- 20 -->
<g id="node21" class="node">
<title>20</title>
<path fill="none" stroke="#56d873" stroke-width="2" d="M51,-468C51,-468 17,-468 17,-468 11,-468 5,-462 5,-456 5,-456 5,-444 5,-444 5,-438 11,-432 17,-432 17,-432 51,-432 51,-432 57,-432 63,-438 63,-444 63,-444 63,-456 63,-456 63,-462 57,-468 51,-468"/>
<text text-anchor="middle" x="34" y="-447.5" font-family="sans" font-size="10.00">BamPlot</text>
</g>
<!-- 20&#45;&gt;0 -->
<g id="edge3" class="edge">
<title>20&#45;&gt;0</title>
<path fill="none" stroke="grey" stroke-width="2" d="M32.62,-431.96C30.58,-405.32 27,-352.17 27,-307 27,-307 27,-307 27,-161 27,-78.89 138.72,-40.94 198.8,-26.47"/>
<polygon fill="grey" stroke="grey" stroke-width="2" points="199.72,-29.85 208.68,-24.19 198.15,-23.03 199.72,-29.85"/>
</g>
<!-- 21&#45;&gt;20 -->
<g id="edge29" class="edge">
<title>21&#45;&gt;20</title>
<path fill="none" stroke="grey" stroke-width="2" d="M44.55,-575.87C42.51,-551.67 38.75,-507.21 36.31,-478.39"/>
<polygon fill="grey" stroke="grey" stroke-width="2" points="39.78,-477.86 35.45,-468.19 32.81,-478.45 39.78,-477.86"/>
</g>
<!-- 22&#45;&gt;9 -->
<g id="edge15" class="edge">
<title>22&#45;&gt;9</title>
<path fill="none" stroke="grey" stroke-width="2" d="M182,-863.7C182,-855.98 182,-846.71 182,-838.11"/>
<polygon fill="grey" stroke="grey" stroke-width="2" points="185.5,-838.1 182,-828.1 178.5,-838.1 185.5,-838.1"/>
</g>
<!-- 23&#45;&gt;8 -->
<g id="edge14" class="edge">
<title>23&#45;&gt;8</title>
<path fill="none" stroke="grey" stroke-width="2" d="M178.76,-719.7C178.21,-711.98 177.55,-702.71 176.94,-694.11"/>
<polygon fill="grey" stroke="grey" stroke-width="2" points="180.43,-693.83 176.22,-684.1 173.44,-694.33 180.43,-693.83"/>
</g>
<!-- 24&#45;&gt;3 -->
<g id="edge10" class="edge">
<title>24&#45;&gt;3</title>
<path fill="none" stroke="grey" stroke-width="2" d="M279.21,-359.7C280.65,-351.98 282.37,-342.71 283.96,-334.11"/>
<polygon fill="grey" stroke="grey" stroke-width="2" points="287.44,-334.58 285.82,-324.1 280.56,-333.3 287.44,-334.58"/>
</g>
<!-- 25&#45;&gt;22 -->
<g id="edge32" class="edge">
<title>25&#45;&gt;22</title>
<path fill="none" stroke="grey" stroke-width="2" d="M134.57,-935.7C142.2,-927.22 151.52,-916.86 159.88,-907.58"/>
<polygon fill="grey" stroke="grey" stroke-width="2" points="162.52,-909.88 166.61,-900.1 157.31,-905.2 162.52,-909.88"/>
</g>
<!-- 25&#45;&gt;23 -->
<g id="edge35" class="edge">
<title>25&#45;&gt;23</title>
<path fill="none" stroke="grey" stroke-width="2" d="M114,-936C106,-905.47 93.4,-840.07 116,-792 121.52,-780.26 131.07,-770.22 141.12,-762.15"/>
<polygon fill="grey" stroke="grey" stroke-width="2" points="143.31,-764.88 149.23,-756.09 139.12,-759.27 143.31,-764.88"/>
</g>
</g>
</svg>
