<?xml version="1.0" ?><svg enable-background="new 0 0 500 500" version="1.1" viewBox="0 0 500 500" xml:space="preserve" xmlns="http://www.w3.org/2000/svg" xmlns:xlink="http://www.w3.org/1999/xlink"><g id="Layer_2"/><g id="Layer_1"><g><polygon fill="#474747" points="468.54,109.982 458.479,103.658 447.816,115.666 462.532,124.916   "/><polygon fill="#474747" points="412.693,114.703 402.03,102.695 391.969,109.019 397.977,123.953   "/><polygon fill="#474747" points="393.892,129.716 377.968,127.638 374.516,139.009 388.843,146.348   "/><polygon fill="#474747" points="435.446,97.301 422.346,97.537 419.939,112.589 438.392,112.257   "/><polygon fill="#474747" points="265.522,152.199 252.423,152.434 250.016,167.486 268.469,167.155   "/><polygon fill="#474747" points="389.222,172.354 388.891,153.901 373.935,156.848 374.17,169.947   "/><polygon fill="#474747" points="388.228,181.321 373.004,182.099 371.365,195.098 385.918,199.632   "/><polygon fill="#474747" points="384.893,207.973 369.716,206.56 366.229,219.189 379.981,225.764   "/><polygon fill="#474747" points="347.901,226.77 360.004,217.504 353.991,205.864 339.43,210.373   "/><polygon fill="#474747" points="345.082,192.107 336.442,182.259 323.396,190.143 335.567,204.017   "/><polygon fill="#474747" points="322.285,170.826 310.831,164.466 301.206,176.286 317.342,185.245   "/><polygon fill="#474747" points="295.677,157.938 283.16,154.07 276.172,167.617 293.805,173.066   "/><polygon fill="#474747" points="171.125,226.77 179.595,210.373 165.034,205.864 159.021,217.504   "/><polygon fill="#474747" points="195.63,190.143 182.584,182.259 173.943,192.107 183.458,204.017   "/><polygon fill="#474747" points="217.819,176.286 208.194,164.466 196.74,170.826 201.683,185.245   "/><polygon fill="#474747" points="242.853,167.617 235.865,154.07 223.348,157.938 225.22,173.066   "/><polygon fill="#474747" points="370.123,251.483 376.778,234.269 361.816,231.355 357.092,243.575   "/><polygon fill="#474747" points="120.052,153.743 107.564,149.779 100.472,163.272 118.064,168.856   "/><polygon fill="#474747" points="154.487,203.987 164.542,192.531 156.367,182.293 142.97,189.565   "/><polygon fill="#474747" points="146.108,171.245 135.98,162.935 124.392,172.839 138.66,184.545   "/><polygon fill="#474747" points="28.83,187.741 15.976,185.599 12.222,196.152 23.542,202.607   "/><polygon fill="#474747" points="22.061,208.972 9.114,210.462 8.421,221.641 21.083,224.72   "/><polygon fill="#474747" points="11.423,235.839 14.332,245.616 26.125,244.284 22.028,230.51   "/><polygon fill="#474747" points="37.516,258.742 28.961,250.156 23.221,258.358 29.294,264.453   "/><polygon fill="#474747" points="44.512,172.575 34.081,163.727 25.02,171.218 31.748,183.127   "/><polygon fill="#474747" points="67.258,162.78 59.637,149.579 47.317,154.034 49.902,169.057   "/><polygon fill="#474747" points="90.164,147.001 77.063,147.038 74.428,162.052 92.884,161.999   "/><path d="M485.496,284.13c-13.673,0-26.292-6.856-33.757-18.341c-1.2-1.846-3.252-2.96-5.453-2.96    c-2.202,0-4.254,1.114-5.454,2.96c-7.465,11.484-20.084,18.341-33.757,18.341s-26.292-6.856-33.757-18.341    c-1.2-1.846-3.252-2.96-5.453-2.96c-2.201,0-4.08,1.048-5.28,2.895C355.119,277.209,342,284,329,284c0,0-0.769,0-1.076,0    c-13.673,0-26.379-6.791-33.844-18.275c-1.2-1.846-3.295-2.927-5.497-2.927c-2.202,0-4.275,1.13-5.475,2.976    c-7.465,11.484-20.095,18.349-33.768,18.349s-26.298-6.852-33.763-18.337c-1.2-1.846-3.255-2.958-5.456-2.958    s-4.255,1.115-5.455,2.961c-7.464,11.484-20.085,18.341-33.758,18.341c-13.673,0-26.293-6.856-33.757-18.34    c-1.2-1.846-3.252-2.96-5.454-2.96c-2.202,0-4.254,1.114-5.454,2.96c-7.465,11.484-20.084,18.341-33.757,18.341    s-26.293-6.856-33.757-18.341c-1.2-1.846-3.252-2.96-5.453-2.96s-4.254,1.114-5.453,2.96    c-7.465,11.484-20.084,18.341-33.757,18.341c-3.592,0-6.504,2.912-6.504,6.504c0,3.592,2.912,6.504,6.504,6.504    c15.092,0,29.211-6.309,39.211-17.217c9.999,10.909,24.119,17.217,39.211,17.217s29.211-6.309,39.211-17.217    c9.999,10.909,24.118,17.217,39.21,17.217c15.092,0,29.211-6.309,39.211-17.217c10,10.909,24.119,17.217,39.211,17.217    c15.092,0,29.211-6.378,39.211-17.287C298.54,290.761,312.832,297,327.924,297c0.307,0,1.076,0,1.076,0    c15,0,29.038-6.239,39.037-17.148c10,10.909,24.032,17.252,39.124,17.252c15.092,0,29.168-6.291,39.167-17.2    c9.999,10.909,24.097,17.226,39.189,17.226c3.592,0,6.494-2.908,6.494-6.5S489.088,284.13,485.496,284.13z" fill="#474747"/><path d="M173.698,336.922c9.999,10.909,24.118,17.217,39.21,17.217c0,0,8.513,0.187,8.513-7.044    c0-6.044-8.512-5.965-8.512-5.965c-13.673,0-26.293-6.856-33.757-18.34c-1.2-1.846-3.252-2.96-5.454-2.96    c-2.202,0-4.254,1.114-5.454,2.96c-7.465,11.484-20.084,18.341-33.757,18.341s-26.293-6.856-33.757-18.341    c-1.2-1.846-3.252-2.96-5.453-2.96s-4.254,1.114-5.453,2.96c-7.465,11.484-20.084,18.341-33.757,18.341    c-3.592,0-6.504,2.912-6.504,6.504c0,3.592,2.912,6.504,6.504,6.504c15.092,0,29.211-6.309,39.211-17.217    c9.999,10.909,24.119,17.217,39.211,17.217S163.698,347.83,173.698,336.922z" fill="#474747"/><path d="M448.909,341.13c-13.673,0-26.293-6.856-33.757-18.34c-1.2-1.846-3.252-2.96-5.454-2.96    c-2.201,0-4.254,1.114-5.454,2.96c-7.465,11.484-20.084,18.341-33.757,18.341s-26.293-6.856-33.757-18.341    c-1.2-1.846-3.252-2.96-5.453-2.96s-4.254,1.114-5.453,2.96c-7.465,11.484-20.084,18.341-33.757,18.341    c-3.592,0-6.504,2.912-6.504,6.504c0,3.592,2.912,6.504,6.504,6.504c15.092,0,29.211-6.309,39.211-17.217    c9.999,10.909,24.119,17.217,39.211,17.217c15.092,0,29.211-6.309,39.211-17.217c9.999,10.909,24.118,17.217,39.21,17.217    c0,0,8.513,0.187,8.513-7.044C457.421,341.051,448.909,341.13,448.909,341.13z" fill="#474747"/><path d="M327.909,399.13c-13.673,0-26.293-6.856-33.757-18.34c-1.2-1.846-3.252-2.959-5.454-2.959    c-2.201,0-4.254,1.114-5.454,2.96c-7.465,11.484-20.084,18.341-33.757,18.341s-26.293-6.856-33.757-18.341    c-1.2-1.846-3.252-2.96-5.453-2.96s-4.254,1.114-5.453,2.96c-7.465,11.484-20.084,18.341-33.757,18.341    c-3.592,0-6.504,2.912-6.504,6.504s2.912,6.504,6.504,6.504c15.092,0,29.211-6.309,39.211-17.217    c9.999,10.909,24.119,17.217,39.211,17.217c15.092,0,29.211-6.309,39.211-17.217c9.999,10.909,24.118,17.217,39.21,17.217    c0,0,8.513,0.187,8.513-7.044C336.421,399.051,327.909,399.13,327.909,399.13z" fill="#474747"/><path d="M396.955,149.41c0,0.59,0.045,1.175,0.045,1.756v12.328c0,30.645-6.14,60.913-18.065,89.14    c7.439,7.301,17.462,11.497,28.139,11.497c7.524,0,14.723-2.087,20.926-5.868v-63.905c0-11.34,8.039-9.147,9.151-6.691l3.38,8.886    c0.462,1.198,2.119,1.242,2.643,0.07l1.996-4.493l9.967,10.274l4.538,6.747c1.298,1.928,3.71,2.77,5.925,2.067l3.973-1.261    l2.693-6.61l-3.978-3.427l1.215-5.578l-4.462,2.583l-3.974-3.493l0.278-6.308l-5.391,2.008l-4.053-3.603l-0.383-4.821    l-5.078,1.095l-2.21-11.682c-0.422-2.232,2.258-3.701,3.912-2.144l5.519,5.197l1.714,6.304l5.569-2.203l5.448,3.54l-0.369,6.313    l5.753-2.999l5.006,2.897l-0.172,6.222l4.835-3.038l3.521,4.609c0.865,1.132,2.037,1.796,3.462,1.796    c2.066,0,3.571-1.675,3.571-3.742v-14.513c0-1.617-0.971-3.361-2.588-3.361h-3.734l-6.724-7.442l-6.724-7.466    c0,0-3.174-2.761-5.552-4.88c-1.607-1.432-2.408-3.529-2.15-5.666l1.052-8.7c0.182-1.503-0.547-2.963-1.854-3.726l-4.929-2.877    l-1.278-5.917l-12.016-6.949l-4.509,0.367c-4.031-1.946-8.552-3.036-13.328-3.036C410.708,118.708,396.955,132.454,396.955,149.41    z M441.716,140.345c3.855,0,6.98,3.125,6.98,6.98c0,3.855-3.125,6.98-6.98,6.98s-6.98-3.125-6.98-6.98    C434.736,143.471,437.861,140.345,441.716,140.345z" fill="#474747"/><path d="M259.504,178.961c-44.875,0-81.43,33.652-82.011,84.613c11.064-1.822,20.927-8.174,27.174-17.785    c1.2-1.846,3.253-2.961,5.455-2.961s4.256,1.111,5.456,2.958c0.675,1.039,1.406,2.026,2.163,2.987    c5.298-18.064,22.009-31.297,41.763-31.297c22.017,0,40.257,16.437,43.121,37.683c7.075,5.668,15.96,8.841,25.3,8.841    c0.307,0,1.076,0,1.076,0c4.193,0,8.395-0.716,12.418-2.058C339.102,207.843,303.249,178.961,259.504,178.961z" fill="#474747"/><path d="M75.967,203.374c12.862,0,20.775,4.356,31.102,25.931c5.208,10.879,7.647,21.678,8.671,27.435    c4.094-2.903,7.672-6.591,10.504-10.949c1.2-1.846,3.252-2.96,5.454-2.96c2.202,0,4.254,1.113,5.454,2.96    c4.401,6.771,10.602,11.916,17.746,15.013c-0.083-3.608-2.414-24.675-12.083-45.953c-14.105-31.036-34.967-42.287-63.975-42.287    c-21.708,0-49.153,16.179-49.153,44.628c0,34.931,20.696,41.719,37.065,41.719c27.436,0,26.452-30.303,19.399-37.747    c-3.516-3.711-6.8-4.407-9.278-3.109c-1.815,0.951-2.949,5.185,0.991,8.717c3.848,3.45,2.748,16.203-10.774,16.203    c-13.522,0-15.052-11.654-15.052-16.353C52.037,211.236,63.105,203.374,75.967,203.374z" fill="#474747"/></g></g></svg>